<svg width="200" height="51" viewBox="0 0 200 51" fill="none" xmlns="http://www.w3.org/2000/svg">
<path d="M78.9285 29.5355L89.9645 43.107H81.25L71.4285 30.643V43.107H64.2855V7.39297H71.4285V28.393L80.5 18.107H89.607L78.9285 29.5355ZM50.357 17.393C48.7931 17.4165 47.2582 17.8186 45.8836 18.565C44.5091 19.3113 43.3359 20.3797 42.4645 21.6785V18.107H35.7145V43.107H42.857V31.4285C42.7633 30.5809 42.845 29.723 43.0971 28.9083C43.3492 28.0936 43.7663 27.3394 44.3224 26.6929C44.8785 26.0463 45.5617 25.5211 46.3296 25.15C47.0974 24.7788 47.9334 24.5697 48.7855 24.5355C52.9285 24.5355 53.5715 28.607 53.5715 31.4285V43.107H60.7145V29.857C60.7145 22 58.107 17.393 50.5 17.393H50.357ZM114.286 31.1785C114.313 31.7022 114.313 32.226 114.286 32.75H95.5355V33C95.8399 34.4893 96.665 35.8214 97.8628 36.7574C99.0607 37.6933 100.553 38.1718 102.071 38.107C103.276 38.1594 104.479 37.9682 105.608 37.5448C106.738 37.1214 107.77 36.4746 108.643 35.643L113.393 39.2145C111.888 40.7509 110.077 41.9547 108.078 42.7482C106.078 43.5417 103.935 43.9073 101.786 43.8215C100.006 43.9339 98.2223 43.6631 96.5561 43.0273C94.8898 42.3914 93.3794 41.4055 92.1268 40.1359C90.8742 38.8664 89.9087 37.3429 89.2953 35.6682C88.682 33.9935 88.4351 32.2067 88.5715 30.4285C88.5349 28.6731 88.8602 26.9289 89.5273 25.3047C90.1943 23.6805 91.1887 22.2111 92.4486 20.9881C93.7085 19.7651 95.2067 18.8147 96.85 18.1962C98.4933 17.5776 100.246 17.3042 102 17.393C108.714 17.393 114.286 22.143 114.286 31.1785ZM107.643 28.107C107.617 27.3996 107.447 26.705 107.143 26.0655C106.84 25.4259 106.409 24.8548 105.878 24.387C105.347 23.9192 104.726 23.5645 104.053 23.3444C103.38 23.1244 102.669 23.0436 101.964 23.107C98.8238 22.7676 95.9797 24.9797 95.5355 28.107H107.643ZM7.14297 7.39297H0V43.107H21.4285V35.9648H7.14297V7.39297ZM135.714 7.39297H142.857V43.107H136.107V40.607C135.25 41.663 134.157 42.5037 132.917 43.0619C131.677 43.6201 130.323 43.8802 128.964 43.8215C127.304 43.7789 125.671 43.3972 124.163 42.6999C122.656 42.0026 121.308 41.0045 120.2 39.7668C119.093 38.5291 118.251 37.0781 117.725 35.5029C117.199 33.9277 117.001 32.2616 117.143 30.607C116.974 28.9501 117.152 27.2763 117.666 25.6919C118.18 24.1076 119.017 22.6475 120.126 21.4046C121.234 20.1617 122.589 19.1631 124.105 18.4725C125.62 17.7818 127.263 17.4142 128.929 17.393C130.169 17.3385 131.408 17.5316 132.573 17.9608C133.738 18.39 134.806 19.0468 135.714 19.893V7.39297ZM136.25 30.607C136.362 29.7823 136.296 28.9431 136.057 28.1461C135.817 27.349 135.41 26.6125 134.861 25.9863C134.313 25.3602 133.637 24.8589 132.878 24.5162C132.12 24.1735 131.297 23.9975 130.464 24C127.048 24.248 124.459 27.1863 124.643 30.607C124.459 34.0277 127.048 36.9664 130.464 37.2145C131.297 37.2169 132.12 37.0409 132.879 36.6982C133.637 36.3556 134.313 35.8542 134.862 35.228C135.41 34.6018 135.818 33.8653 136.057 33.0681C136.297 32.271 136.362 31.4318 136.25 30.607ZM28.5715 6.67852C27.4228 6.6947 26.3231 7.14618 25.4945 7.94178C24.6658 8.73738 24.1699 9.81781 24.107 10.9648C24.107 13.4301 26.1059 15.4289 28.5715 15.4289C31.0371 15.4289 33.0352 13.4297 33.0352 10.9648C32.9722 9.81794 32.4763 8.73767 31.6477 7.94216C30.8192 7.14666 29.7196 6.69518 28.5711 6.67891M25 43.107H32.143V18.107H25V43.107ZM200 3.82148V46.6785C200 47.6257 199.624 48.5342 198.954 49.2039C198.284 49.8737 197.376 50.25 196.429 50.25H153.571C152.624 50.25 151.716 49.8737 151.046 49.2039C150.376 48.5342 150 47.6257 150 46.6785V3.82148C150 2.87427 150.376 1.96585 151.046 1.29606C151.716 0.62628 152.624 0.25 153.571 0.25L196.429 0.25C197.376 0.25 198.284 0.62628 198.954 1.29606C199.624 1.96585 200 2.87427 200 3.82148ZM164.286 18.107H157.143V43.107H164.286V18.107ZM165.179 10.9645C165.179 8.49883 163.18 6.5 160.714 6.5C158.249 6.5 156.25 8.49883 156.25 10.9645C156.25 13.4297 158.249 15.4285 160.714 15.4285C163.18 15.4285 165.179 13.4297 165.179 10.9645ZM192.857 29.857C192.857 22 190.25 17.393 182.643 17.393C181.055 17.3932 179.491 17.7843 178.09 18.5316C176.688 19.279 175.492 20.3597 174.607 21.6785V18.107H167.857V43.107H175V31.4285C174.906 30.5809 174.988 29.723 175.24 28.9083C175.492 28.0936 175.909 27.3394 176.465 26.6929C177.021 26.0463 177.705 25.5211 178.473 25.15C179.24 24.7788 180.076 24.5697 180.929 24.5355C185.071 24.5355 185.714 28.607 185.714 31.4285V43.107H192.857V29.857Z" fill="#0A66C2"/>
</svg>
