<svg width="186" height="51" viewBox="0 0 186 51" fill="none" xmlns="http://www.w3.org/2000/svg">
<path d="M36.3165 21.6228H20.8001C20.6077 21.623 20.4233 21.6995 20.2873 21.8356C20.1513 21.9716 20.0748 22.1561 20.0747 22.3485V29.9348C20.0747 30.3352 20.3998 30.6609 20.7997 30.6609H26.8532V40.0865C26.8532 40.0865 25.4939 40.5499 21.7363 40.5499C17.3029 40.5499 11.1097 38.9298 11.1097 25.3116C11.1097 11.6906 17.5588 9.89859 23.6129 9.89859C28.8534 9.89859 31.1114 10.8211 32.5477 11.2657C32.9992 11.4041 33.4169 10.9548 33.4169 10.5541L35.1476 3.22393C35.1476 3.03655 35.0842 2.81097 34.8705 2.65782C34.2871 2.24163 30.728 0.25 21.7359 0.25C11.3778 0.25 0.751953 4.65702 0.751953 25.8428C0.751953 47.0292 12.9172 50.1862 23.169 50.1862C31.6569 50.1862 36.8059 46.559 36.8059 46.559C37.0185 46.4419 37.0412 46.1453 37.0412 46.0091V22.3485C37.0412 21.9485 36.7165 21.6228 36.3165 21.6228ZM116.241 2.90178C116.241 2.49819 115.921 2.17244 115.521 2.17244H106.784C106.689 2.17282 106.594 2.19198 106.506 2.22884C106.418 2.2657 106.338 2.31952 106.271 2.38725C106.204 2.45498 106.151 2.53527 106.115 2.62355C106.079 2.71184 106.06 2.80638 106.061 2.90178L106.063 19.7861H92.4446V2.90214C92.4446 2.49855 92.1231 2.1728 91.7235 2.1728H82.9862C82.7938 2.17385 82.6097 2.25127 82.4744 2.38803C82.339 2.5248 82.2635 2.70972 82.2645 2.90214V48.6198C82.2645 49.0234 82.5888 49.3513 82.9862 49.3513H91.7228C92.1224 49.3513 92.4435 49.0234 92.4435 48.6198V29.0646H106.062L106.038 48.6194C106.038 49.023 106.363 49.3509 106.762 49.3509H115.52C115.92 49.3509 116.24 49.023 116.24 48.6194L116.241 2.90178ZM52.7749 9.01431C52.7749 5.8685 50.2525 3.3259 47.1409 3.3259C44.0322 3.3259 41.508 5.86814 41.508 9.01431C41.508 12.1565 44.0322 14.706 47.1409 14.706C50.2525 14.706 52.7749 12.1565 52.7749 9.01431ZM52.0816 38.9993V17.8961C52.0822 17.7037 52.0064 17.5189 51.8709 17.3824C51.7353 17.2459 51.5512 17.1687 51.3588 17.1678H42.6496C42.25 17.1678 41.8929 17.5801 41.8929 17.9808V48.2155C41.8929 49.1041 42.4464 49.3682 43.1631 49.3682H51.0096C51.8708 49.3682 52.0816 48.9456 52.0816 48.2011V38.9993ZM149.633 17.1682H140.963C140.565 17.1682 140.241 17.4957 140.241 17.899V40.316C140.241 40.316 138.039 41.9275 134.913 41.9275C131.786 41.9275 130.957 40.5088 130.957 37.448V17.8993C130.957 17.4957 130.634 17.1678 130.236 17.1678H121.437C121.04 17.1678 120.714 17.4957 120.714 17.8993V38.9283C120.714 48.0198 125.782 50.2442 132.753 50.2442C138.471 50.2442 143.082 47.0851 143.082 47.0851C143.082 47.0851 143.302 48.7499 143.401 48.9474C143.5 49.1445 143.759 49.343 144.039 49.343L149.637 49.3185C150.034 49.3185 150.359 48.9902 150.359 48.5888L150.356 17.899C150.357 17.7062 150.281 17.5209 150.146 17.3839C150.01 17.2469 149.826 17.1693 149.633 17.1682ZM169.608 41.9448C166.601 41.8532 164.561 40.4886 164.561 40.4886V26.0103C164.561 26.0103 166.574 24.7769 169.043 24.5563C172.165 24.2767 175.173 25.2197 175.173 32.6677C175.173 40.5214 173.815 42.0716 169.608 41.9448ZM173.028 16.1859C168.104 16.1859 164.755 18.3829 164.755 18.3829V2.90178C164.755 2.80654 164.737 2.71211 164.701 2.62388C164.665 2.53566 164.612 2.45538 164.546 2.38763C164.479 2.31989 164.399 2.26601 164.311 2.22909C164.223 2.19216 164.129 2.17291 164.034 2.17244H155.272C155.177 2.17286 155.083 2.19207 154.995 2.22896C154.907 2.26585 154.827 2.31971 154.76 2.38744C154.693 2.45518 154.64 2.53547 154.604 2.62372C154.568 2.71197 154.549 2.80646 154.55 2.90178V48.6194C154.55 49.023 154.874 49.3509 155.273 49.3509H161.352C161.626 49.3509 161.833 49.2104 161.986 48.9629C162.137 48.7171 162.355 46.8548 162.355 46.8548C162.355 46.8548 165.938 50.25 172.72 50.25C180.682 50.25 185.248 46.2113 185.248 32.1193C185.248 18.0273 177.956 16.1859 173.028 16.1859ZM77.2276 17.0889H70.674L70.6639 8.43091C70.6639 8.10335 70.4952 7.9394 70.1162 7.9394H61.1854C60.838 7.9394 60.6517 8.09218 60.6517 8.42586V17.3732C60.6517 17.3732 56.1762 18.4535 55.8735 18.5407C55.7225 18.5844 55.5898 18.676 55.4954 18.8017C55.401 18.9274 55.3501 19.0804 55.3503 19.2376V24.8601C55.3503 25.2644 55.6732 25.5905 56.0728 25.5905H60.6517V39.1164C60.6517 49.1628 67.6986 50.1498 72.4541 50.1498C74.627 50.1498 77.2261 49.4518 77.6553 49.2936C77.9147 49.1982 78.0654 48.9297 78.0654 48.6378L78.0726 42.4529C78.0726 42.0496 77.732 41.7232 77.3483 41.7232C76.9663 41.7232 75.9898 41.8785 74.9837 41.8785C71.7647 41.8785 70.674 40.3816 70.674 38.4444L70.6736 25.5909H77.2276C77.3231 25.5905 77.4175 25.5713 77.5056 25.5343C77.5936 25.4974 77.6735 25.4434 77.7407 25.3755C77.8078 25.3076 77.8609 25.2272 77.8969 25.1387C77.9329 25.0503 77.9511 24.9556 77.9504 24.8601V17.8179C77.9504 17.4143 77.6272 17.0889 77.2276 17.0889Z" fill="#141310"/>
</svg>
