<svg width="1148" height="158" viewBox="0 0 1148 158" fill="none" xmlns="http://www.w3.org/2000/svg">
<path d="M60.8436 1.99999C80.7903 1.99999 96.4836 6.76666 107.924 16.3C119.364 25.8333 125.084 38.96 125.084 55.68C125.084 72.4 119.364 85.5267 107.924 95.06C96.4836 104.593 80.7903 109.36 60.8436 109.36H22.7836V156H0.783595V1.99999H60.8436ZM60.1836 90.22C74.1169 90.22 84.7503 87.2867 92.0836 81.42C99.4169 75.4067 103.084 66.8267 103.084 55.68C103.084 44.5333 99.4169 36.0267 92.0836 30.16C84.7503 24.1467 74.1169 21.14 60.1836 21.14H22.7836V90.22H60.1836ZM260.365 156L227.145 108.7C223.038 108.993 219.811 109.14 217.465 109.14H179.405V156H157.405V1.99999H217.465C237.411 1.99999 253.105 6.76666 264.545 16.3C275.985 25.8333 281.705 38.96 281.705 55.68C281.705 67.56 278.771 77.68 272.905 86.04C267.038 94.4 258.678 100.487 247.825 104.3L284.345 156H260.365ZM216.805 90.44C230.738 90.44 241.371 87.4333 248.705 81.42C256.038 75.4067 259.705 66.8267 259.705 55.68C259.705 44.5333 256.038 36.0267 248.705 30.16C241.371 24.1467 230.738 21.14 216.805 21.14H179.405V90.44H216.805ZM386.768 157.76C371.222 157.76 357.215 154.387 344.748 147.64C332.282 140.747 322.455 131.287 315.268 119.26C308.228 107.233 304.708 93.8133 304.708 79C304.708 64.1867 308.228 50.7667 315.268 38.74C322.455 26.7133 332.282 17.3267 344.748 10.58C357.215 3.68667 371.222 0.239999 386.768 0.239999C402.168 0.239999 416.102 3.68667 428.568 10.58C441.035 17.3267 450.788 26.7133 457.828 38.74C464.868 50.62 468.388 64.04 468.388 79C468.388 93.96 464.868 107.453 457.828 119.48C450.788 131.36 441.035 140.747 428.568 147.64C416.102 154.387 402.168 157.76 386.768 157.76ZM386.768 138.18C398.062 138.18 408.182 135.613 417.128 130.48C426.222 125.347 433.335 118.307 438.468 109.36C443.748 100.267 446.388 90.1467 446.388 79C446.388 67.8533 443.748 57.8067 438.468 48.86C433.335 39.7667 426.222 32.6533 417.128 27.52C408.182 22.3867 398.062 19.82 386.768 19.82C375.475 19.82 365.208 22.3867 355.968 27.52C346.875 32.6533 339.688 39.7667 334.408 48.86C329.275 57.8067 326.708 67.8533 326.708 79C326.708 90.1467 329.275 100.267 334.408 109.36C339.688 118.307 346.875 125.347 355.968 130.48C365.208 135.613 375.475 138.18 386.768 138.18ZM518.591 157.76C509.351 157.76 500.771 155.853 492.851 152.04C484.931 148.08 478.551 142.58 473.711 135.54L486.471 120.58C494.978 132.753 505.685 138.84 518.591 138.84C527.245 138.84 533.771 136.2 538.171 130.92C542.718 125.64 544.991 117.867 544.991 107.6V21.14H489.331V1.99999H566.771V106.5C566.771 123.513 562.665 136.347 554.451 145C546.385 153.507 534.431 157.76 518.591 157.76ZM723.344 136.86V156H611.584V1.99999H720.264V21.14H633.584V68.44H710.804V87.14H633.584V136.86H723.344ZM827.183 157.76C811.783 157.76 797.849 154.387 785.383 147.64C773.063 140.747 763.383 131.36 756.343 119.48C749.303 107.453 745.783 93.96 745.783 79C745.783 64.04 749.303 50.62 756.343 38.74C763.383 26.7133 773.136 17.3267 785.603 10.58C798.069 3.68667 812.003 0.239999 827.403 0.239999C839.429 0.239999 850.429 2.29333 860.403 6.4C870.376 10.36 878.883 16.3 885.923 24.22L871.623 38.08C860.036 25.9067 845.589 19.82 828.283 19.82C816.843 19.82 806.503 22.3867 797.263 27.52C788.023 32.6533 780.763 39.7667 775.483 48.86C770.349 57.8067 767.783 67.8533 767.783 79C767.783 90.1467 770.349 100.267 775.483 109.36C780.763 118.307 788.023 125.347 797.263 130.48C806.503 135.613 816.843 138.18 828.283 138.18C845.443 138.18 859.889 132.02 871.623 119.7L885.923 133.56C878.883 141.48 870.303 147.493 860.183 151.6C850.209 155.707 839.209 157.76 827.183 157.76ZM946.168 21.14H893.368V1.99999H1020.75V21.14H967.948V156H946.168V21.14ZM1087.66 157.76C1076.07 157.76 1064.85 156 1054 152.48C1043.29 148.813 1034.86 144.12 1028.7 138.4L1036.84 121.24C1042.7 126.52 1050.18 130.847 1059.28 134.22C1068.52 137.447 1077.98 139.06 1087.66 139.06C1100.42 139.06 1109.95 136.933 1116.26 132.68C1122.56 128.28 1125.72 122.487 1125.72 115.3C1125.72 110.02 1123.96 105.767 1120.44 102.54C1117.06 99.1667 1112.81 96.6 1107.68 94.84C1102.69 93.08 1095.58 91.1 1086.34 88.9C1074.75 86.1133 1065.36 83.3267 1058.18 80.54C1051.14 77.7533 1045.05 73.5 1039.92 67.78C1034.93 61.9133 1032.44 54.0667 1032.44 44.24C1032.44 36.0267 1034.56 28.62 1038.82 22.02C1043.22 15.42 1049.82 10.14 1058.62 6.17999C1067.42 2.22 1078.34 0.239999 1091.4 0.239999C1100.49 0.239999 1109.44 1.41333 1118.24 3.75999C1127.04 6.10666 1134.59 9.47999 1140.9 13.88L1133.64 31.48C1127.18 27.3733 1120.29 24.2933 1112.96 22.24C1105.62 20.04 1098.44 18.94 1091.4 18.94C1078.93 18.94 1069.54 21.2133 1063.24 25.76C1057.08 30.3067 1054 36.1733 1054 43.36C1054 48.64 1055.76 52.9667 1059.28 56.34C1062.8 59.5667 1067.12 62.1333 1072.26 64.04C1077.54 65.8 1084.65 67.7067 1093.6 69.76C1105.18 72.5467 1114.5 75.3333 1121.54 78.12C1128.58 80.9067 1134.59 85.16 1139.58 90.88C1144.71 96.6 1147.28 104.3 1147.28 113.98C1147.28 122.047 1145.08 129.453 1140.68 136.2C1136.28 142.8 1129.6 148.08 1120.66 152.04C1111.71 155.853 1100.71 157.76 1087.66 157.76Z" fill="#FB6502"/>
</svg>
