<svg width="1260" height="102" viewBox="0 0 1260 102" fill="none" xmlns="http://www.w3.org/2000/svg">
<path d="M68.104 101L45.384 69.05C42.828 69.334 40.1774 69.476 37.432 69.476H10.736V101H0.22804V1.59999H37.432C50.1174 1.59999 60.0574 4.62933 67.252 10.688C74.4467 16.7467 78.044 25.0773 78.044 35.68C78.044 43.4427 76.056 50.022 72.08 55.418C68.1987 60.7193 62.6134 64.5533 55.324 66.92L79.606 101H68.104ZM37.148 60.53C46.9934 60.53 54.5194 58.3527 59.726 53.998C64.9327 49.6433 67.536 43.5373 67.536 35.68C67.536 27.6333 64.9327 21.48 59.726 17.22C54.5194 12.8653 46.9934 10.688 37.148 10.688H10.736V60.53H37.148ZM165.183 74.446H109.803L97.8752 101H86.9412L132.381 1.59999H142.747L188.187 101H177.111L165.183 74.446ZM161.349 65.926L137.493 12.534L113.637 65.926H161.349ZM232.886 66.636V101H222.52V66.636L182.76 1.59999H193.978L228.058 57.406L262.138 1.59999H272.646L232.886 66.636ZM345.457 74.446H290.077L278.149 101H267.215L312.655 1.59999H323.021L368.461 101H357.385L345.457 74.446ZM341.623 65.926L317.767 12.534L293.911 65.926H341.623ZM467.974 1.59999V101H459.312L395.412 20.344V101H384.904V1.59999H393.566L457.608 82.256V1.59999H467.974ZM580.75 101.852C570.904 101.852 562.006 99.6747 554.054 95.32C546.196 90.9653 539.996 84.954 535.452 77.286C531.002 69.5233 528.778 60.8613 528.778 51.3C528.778 41.7387 531.002 33.124 535.452 25.456C539.996 17.6933 546.244 11.6347 554.196 7.28C562.148 2.92533 571.046 0.747996 580.892 0.747996C588.276 0.747996 595.092 1.97866 601.34 4.44C607.588 6.90133 612.889 10.4987 617.244 15.232L610.57 21.906C602.807 14.0487 593.009 10.12 581.176 10.12C573.318 10.12 566.171 11.9187 559.734 15.516C553.296 19.1133 548.232 24.036 544.54 30.284C540.942 36.532 539.144 43.5373 539.144 51.3C539.144 59.0627 540.942 66.068 544.54 72.316C548.232 78.564 553.296 83.4867 559.734 87.084C566.171 90.6813 573.318 92.48 581.176 92.48C593.104 92.48 602.902 88.504 610.57 80.552L617.244 87.226C612.889 91.9593 607.54 95.604 601.198 98.16C594.95 100.621 588.134 101.852 580.75 101.852ZM722.714 1.59999V101H712.348V55.134H650.152V101H639.644V1.59999H650.152V45.904H712.348V1.59999H722.714ZM817.496 74.446H762.116L750.188 101H739.254L784.694 1.59999H795.06L840.5 101H829.424L817.496 74.446ZM813.662 65.926L789.806 12.534L765.95 65.926H813.662ZM960.177 1.59999V101H950.095V21.48L911.045 88.362H906.075L867.025 21.906V101H856.943V1.59999H865.605L908.773 75.298L951.515 1.59999H960.177ZM1055.19 49.738C1061.72 51.158 1066.74 53.998 1070.24 58.258C1073.84 62.4233 1075.63 67.8193 1075.63 74.446C1075.63 82.966 1072.46 89.5453 1066.12 94.184C1059.87 98.728 1050.59 101 1038.29 101H992.564V1.59999H1035.45C1046.52 1.59999 1055.09 3.82466 1061.15 8.27399C1067.3 12.7233 1070.38 19.0187 1070.38 27.16C1070.38 32.6507 1069.01 37.3367 1066.26 41.218C1063.61 45.0047 1059.92 47.8447 1055.19 49.738ZM1003.07 10.262V46.33H1034.74C1042.78 46.33 1048.99 44.8153 1053.34 41.786C1057.69 38.662 1059.87 34.1653 1059.87 28.296C1059.87 22.4267 1057.69 17.9773 1053.34 14.948C1048.99 11.824 1042.78 10.262 1034.74 10.262H1003.07ZM1038.15 92.338C1047.04 92.338 1053.77 90.8233 1058.31 87.794C1062.85 84.7647 1065.13 80.0313 1065.13 73.594C1065.13 61.1927 1056.13 54.992 1038.15 54.992H1003.07V92.338H1038.15ZM1169.91 91.912V101H1099.62V1.59999H1167.78V10.688H1110.13V46.046H1161.53V54.992H1110.13V91.912H1169.91ZM1213.92 10.688H1178.99V1.59999H1259.36V10.688H1224.43V101H1213.92V10.688Z" fill="url(#paint0_linear_136_2)"/>
<defs>
<linearGradient id="paint0_linear_136_2" x1="682.01" y1="-44.8293" x2="684.758" y2="191.079" gradientUnits="userSpaceOnUse">
<stop offset="0.385" stop-color="#FB6502"/>
<stop offset="1" stop-color="#FFB800"/>
</linearGradient>
</defs>
</svg>
